<?xml version="1.0" standalone="no"?>
<!DOCTYPE svg PUBLIC "-//W3C//DTD SVG 20010904//EN"
 "http://www.w3.org/TR/2001/REC-SVG-20010904/DTD/svg10.dtd">
<svg version="1.0" xmlns="http://www.w3.org/2000/svg"
 width="270.000000pt" height="270.000000pt" viewBox="0 0 270.000000 270.000000"
 preserveAspectRatio="xMidYMid meet">
<metadata>
Created by potrace 1.14, written by Peter Selinger 2001-2017
</metadata>
<g transform="translate(0.000000,270.000000) scale(0.100000,-0.100000)"
fill="#000000" stroke="none">
<path d="M0 1350 l0 -1350 1350 0 1350 0 0 1350 0 1350 -1350 0 -1350 0 0
-1350z m1555 1216 c39 -9 107 -35 153 -58 482 -242 558 -892 144 -1238 -420
-352 -1072 -135 -1198 398 -99 416 169 828 591 907 81 16 224 11 310 -9z m627
-1556 c55 -25 102 -75 129 -134 30 -66 27 -73 -36 -72 -49 0 -55 3 -65 27 -34
81 -130 119 -213 84 -78 -32 -97 -92 -94 -300 2 -147 4 -163 25 -196 33 -54
68 -73 132 -73 70 0 112 24 142 81 23 42 23 43 75 42 59 -2 62 -7 38 -65 -89
-213 -392 -230 -491 -28 -28 57 -29 65 -32 229 -3 109 1 190 8 225 14 61 57
131 97 158 81 53 201 63 285 22z m-1400 0 c68 -26 107 -77 118 -158 12 -91
-27 -170 -96 -192 l-36 -12 40 -18 c40 -18 84 -67 97 -108 21 -71 -3 -174 -51
-218 -58 -55 -75 -58 -290 -62 l-201 -4 0 396 0 396 183 0 c159 0 190 -3 236
-20z m642 -130 c31 -11 66 -65 66 -101 0 -23 -4 -26 -35 -26 -29 0 -35 4 -40
28 -8 35 -50 54 -88 40 -15 -6 -30 -16 -32 -23 -13 -37 -11 -69 4 -104 18 -39
136 -174 152 -174 4 0 11 17 14 38 13 81 13 81 46 80 l31 -1 -5 -58 c-3 -32
-12 -73 -21 -91 -14 -26 -14 -35 -4 -43 7 -6 26 -25 42 -43 l30 -32 -47 0
c-35 0 -52 5 -64 20 -11 13 -21 16 -28 10 -20 -17 -119 -37 -155 -32 -79 10
-117 49 -127 129 -6 57 15 115 53 139 21 14 21 18 9 47 -16 38 -13 123 4 156
24 43 130 66 195 41z"/>
<path d="M1103 2495 c-43 -22 -64 -48 -61 -74 2 -15 -2 -26 -9 -26 -17 0 -26
-12 -29 -41 -2 -15 3 -27 12 -31 7 -3 11 -9 8 -14 -3 -5 -2 -14 2 -21 5 -7 9
-28 10 -48 2 -19 6 -53 9 -75 3 -22 8 -74 11 -115 2 -41 8 -90 12 -109 6 -27
2 -45 -16 -80 -18 -35 -22 -57 -19 -95 2 -26 10 -52 17 -56 7 -4 10 -14 7 -22
-3 -8 3 -20 14 -26 15 -10 18 -21 14 -57 -3 -35 2 -58 22 -97 21 -41 23 -55
14 -74 -6 -14 -19 -24 -31 -24 -11 0 -20 -4 -20 -10 0 -5 5 -10 11 -10 6 0 8
-8 4 -19 -4 -14 2 -21 24 -31 16 -6 32 -18 35 -26 6 -17 47 -19 63 -3 16 16
33 2 33 -27 0 -23 1 -24 23 -9 26 17 37 12 37 -19 0 -28 31 -48 51 -32 16 11
19 17 19 36 0 6 5 10 10 10 6 0 10 -9 10 -19 0 -22 27 -36 45 -21 6 5 10 23 7
40 -6 44 4 37 30 -20 l23 -49 16 42 c21 53 39 54 53 2 16 -57 48 -60 64 -6 7
22 12 43 11 48 -4 21 2 33 16 33 8 0 15 -6 15 -14 0 -7 8 -20 17 -27 9 -8 14
-9 10 -3 -4 7 -1 17 7 23 7 6 12 24 11 40 -1 16 2 35 7 43 6 9 8 6 7 -12 -3
-49 1 -60 20 -60 20 0 31 18 31 52 0 12 8 27 18 34 15 12 11 13 -30 14 -56 0
-64 9 -43 49 l15 30 -57 40 c-31 23 -60 41 -64 41 -5 0 -18 -13 -31 -30 -19
-27 -48 -44 -33 -21 3 6 -3 15 -14 21 -11 6 -25 29 -32 53 -17 62 -41 106 -62
113 -26 8 -38 48 -40 134 l-2 75 60 6 c53 5 56 6 20 9 -22 2 -48 4 -57 3 -31
0 -19 15 25 31 l42 15 -45 -5 c-24 -3 -48 -8 -52 -10 -21 -13 -5 23 20 44 l27
23 -42 -21 c-60 -28 -69 -26 -80 23 -8 32 -11 36 -12 15 -3 -63 -17 -70 -84
-38 l-42 21 28 -26 c35 -31 28 -45 -24 -45 -36 0 -39 2 -39 28 0 15 -5 43 -11
62 -6 19 -12 70 -14 113 -2 43 -8 84 -14 90 -17 21 -8 58 15 67 29 11 22 70
-8 70 -15 0 -18 4 -13 18 10 23 26 94 23 97 -2 1 -13 -4 -25 -10z m97 -555
c12 -8 9 -10 -12 -10 -15 0 -30 5 -33 10 -8 13 25 13 45 0z m20 -40 c5 -8 3
-25 -6 -42 -18 -34 -24 -35 -23 -5 0 12 -2 32 -6 44 -5 17 -3 21 10 19 9 -1
20 -9 25 -16z"/>
<path d="M473 812 l2 -117 123 1 c106 1 127 4 150 21 55 40 54 146 -1 187 -25
18 -44 21 -152 23 l-123 2 1 -117z"/>
<path d="M473 474 c-1 -88 2 -124 11 -127 22 -9 220 0 247 11 84 34 94 173 15
222 -14 9 -62 14 -147 15 l-125 2 -1 -123z"/>
<path d="M1245 560 c-21 -41 -19 -64 9 -97 21 -24 32 -28 73 -27 89 1 90 11
17 87 -36 37 -69 67 -74 67 -5 0 -16 -13 -25 -30z"/>
</g>
</svg>
