<?xml version="1.0" encoding="UTF-8" standalone="no"?>
<!-- Created with Inkscape (http://www.inkscape.org/) -->

<svg
   width="814"
   height="122.707"
   viewBox="0 0 215.37083 32.466227"
   version="1.1"
   id="svg5"
   inkscape:version="1.2.2 (732a01da63, 2022-12-09)"
   sodipodi:docname="logo.svg"
   xmlns:inkscape="http://www.inkscape.org/namespaces/inkscape"
   xmlns:sodipodi="http://sodipodi.sourceforge.net/DTD/sodipodi-0.dtd"
   xmlns="http://www.w3.org/2000/svg"
   xmlns:svg="http://www.w3.org/2000/svg">
  <sodipodi:namedview
     id="namedview7"
     pagecolor="#ffffff"
     bordercolor="#000000"
     borderopacity="0.25"
     inkscape:showpageshadow="2"
     inkscape:pageopacity="0.0"
     inkscape:pagecheckerboard="0"
     inkscape:deskcolor="#d1d1d1"
     inkscape:document-units="mm"
     showgrid="false"
     inkscape:zoom="1.0028457"
     inkscape:cx="539.96345"
     inkscape:cy="-77.280087"
     inkscape:window-width="1920"
     inkscape:window-height="991"
     inkscape:window-x="-9"
     inkscape:window-y="-9"
     inkscape:window-maximized="1"
     inkscape:current-layer="layer1" />
  <defs
     id="defs2">
    <rect
       x="407"
       y="-490.74981"
       width="523.0273"
       height="69.80493"
       id="rect5921" />
    <rect
       x="48.5904"
       y="-303.69223"
       width="651.04799"
       height="119.955"
       id="rect4022" />
    <rect
       x="48.590401"
       y="-303.69223"
       width="651.04797"
       height="119.955"
       id="rect4022-3" />
    <rect
       x="48.590401"
       y="-303.69223"
       width="651.04797"
       height="119.955"
       id="rect4022-3-8" />
    <rect
       x="48.590401"
       y="-303.69223"
       width="651.04797"
       height="119.955"
       id="rect4022-3-8-4" />
    <rect
       x="48.590401"
       y="-303.69223"
       width="651.04797"
       height="119.955"
       id="rect4022-3-8-1" />
    <rect
       x="48.590401"
       y="-303.69223"
       width="651.04797"
       height="119.955"
       id="rect4022-9" />
    <rect
       x="48.590401"
       y="-303.69223"
       width="651.04797"
       height="119.955"
       id="rect4022-9-6" />
    <rect
       x="48.590401"
       y="-303.69223"
       width="651.04797"
       height="119.955"
       id="rect4022-0" />
    <rect
       x="48.590401"
       y="-303.69223"
       width="651.04797"
       height="119.955"
       id="rect4022-4" />
    <rect
       x="48.590401"
       y="-303.69223"
       width="651.04797"
       height="119.955"
       id="rect4022-7" />
    <rect
       x="48.590401"
       y="-303.69223"
       width="651.04797"
       height="119.955"
       id="rect4022-09" />
    <rect
       x="48.590401"
       y="-303.69223"
       width="651.04797"
       height="119.955"
       id="rect4022-09-0" />
  </defs>
  <g
     inkscape:label="Layer 1"
     inkscape:groupmode="layer"
     id="layer1">
    <g
       aria-label="B&amp;C "
       transform="matrix(3.46858,0,0,3.46858,-164.92,1045.958)"
       id="text4020"
       style="font-family:Bahnschrift;-inkscape-font-specification:Bahnschrift;text-align:center;white-space:pre;shape-inside:url(#rect4022);display:inline;opacity:1;fill:#ffffff;stroke:#ffffff;stroke-width:0.288302">
      <path
         d="m 50.347656,-292.66406 v -1.10742 h 2.308594 c 0.632813,0 1.080078,-0.1211 1.341797,-0.36329 0.265625,-0.24219 0.398437,-0.56054 0.398437,-0.95507 v -0.0176 c 0,-0.42187 -0.113281,-0.75781 -0.339843,-1.00781 -0.222657,-0.25391 -0.591797,-0.38086 -1.107422,-0.38086 h -2.601563 l -0.15256,-1.07813 h 2.754123 c 0.441406,0 0.773437,-0.10352 0.996093,-0.31055 0.226563,-0.21093 0.339844,-0.51757 0.339844,-0.91992 v 0 c 0,-0.42578 -0.125,-0.74414 -0.375,-0.95508 -0.25,-0.21093 -0.625,-0.3164 -1.125,-0.3164 h -2.4375 v -1.10742 h 2.654297 c 0.839844,0 1.464844,0.20898 1.875,0.62695 0.410156,0.41797 0.615234,0.97851 0.615234,1.68164 v 0 c 0,0.42578 -0.125,0.81641 -0.375,1.17188 -0.25,0.35156 -0.642578,0.57617 -1.177734,0.67382 0.527344,0.0781 0.935547,0.31055 1.224609,0.69727 0.292969,0.38672 0.439454,0.83008 0.439454,1.33008 v 0.0176 c 0,0.69531 -0.22461,1.25585 -0.673829,1.68164 -0.449219,0.42578 -1.058594,0.63867 -1.828125,0.63867 z m -0.703125,0 v -8.51953 h 1.189453 v 8.51953 z"
         style="text-align:start"
         id="path340"
         sodipodi:nodetypes="ccscsscsccscsscsccsssscccsscscccccc" />
      <path
         d="m 62.464844,-292.66406 -3.246094,-3.38672 c -0.402344,-0.42187 -0.71875,-0.87305 -0.949219,-1.35352 -0.226563,-0.48437 -0.339844,-0.98633 -0.339844,-1.50586 0,-0.74609 0.199219,-1.32226 0.597657,-1.72851 0.398437,-0.41016 0.960937,-0.46268 1.6875,-0.46268 0.722656,0 1.28125,0.0447 1.675781,0.43924 0.398437,0.39063 0.597656,0.94531 0.597656,1.66406 v 0.11719 h -1.195312 v -0.11719 c 0,-0.34765 -0.09375,-0.61523 -0.28125,-0.80273 -0.1875,-0.19141 -0.453125,-0.28711 -0.796875,-0.28711 -0.34375,0 -0.611328,0.10352 -0.802735,0.31055 -0.191406,0.20312 -0.287109,0.49218 -0.287109,0.86718 0,0.34375 0.08203,0.69922 0.246094,1.06641 0.167969,0.36719 0.40625,0.71289 0.714843,1.03711 l 3.896485,4.14258 z m -2.677735,-3.74414 c -0.484375,0 -0.861328,0.12109 -1.130859,0.36328 -0.265625,0.24219 -0.398438,0.58398 -0.398438,1.02539 0,0.43359 0.140625,0.77148 0.421875,1.01367 0.285157,0.23828 0.685547,0.35742 1.201172,0.35742 0.738281,0 1.310547,-0.29101 1.716797,-0.87304 0.40625,-0.58203 0.609375,-1.40235 0.609375,-2.46094 h 1.136719 c 0,0.93359 -0.146484,1.72851 -0.439453,2.38476 -0.292969,0.65625 -0.716797,1.15821 -1.271485,1.50586 -0.554687,0.34375 -1.226562,0.51563 -2.015625,0.51563 -0.800781,0 -1.421874,-0.21289 -1.863281,-0.63867 -0.4375,-0.42579 -0.65625,-1.02735 -0.65625,-1.80469 0,-0.69922 0.191406,-1.25781 0.574219,-1.67578 0.386719,-0.41797 0.927734,-0.65821 1.623047,-0.72071 z"
         style="text-align:start"
         id="path342"
         sodipodi:nodetypes="cccscscsccscscsccccccscscccscscsccc" />
      <path
         d="m 68.001953,-292.57617 c -0.59375,0 -1.113281,-0.13086 -1.558594,-0.39258 -0.445312,-0.26563 -0.791015,-0.63672 -1.037109,-1.11328 -0.246094,-0.47656 -0.369141,-1.0332 -0.369141,-1.66992 v -2.33789 c 0,-0.64063 0.123047,-1.19922 0.369141,-1.67578 0.246094,-0.47657 0.591797,-0.84571 1.037109,-1.10743 0.445313,-0.26562 0.964844,-0.39843 1.558594,-0.39843 0.492187,0 0.941406,0.10547 1.347656,0.3164 0.410157,0.21094 0.751954,0.50586 1.025391,0.88477 0.277344,0.37891 0.464844,0.82227 0.5625,1.33008 v 0 h -1.224609 v 0 c 0,0 -0.199219,-0.51172 -0.375,-0.71485 -0.171875,-0.20703 -0.375,-0.36718 -0.609375,-0.48047 -0.234375,-0.11328 -0.476563,-0.16992 -0.726563,-0.16992 -0.523437,0 -0.945312,0.18555 -1.265625,0.55664 -0.316406,0.36719 -0.474609,0.85352 -0.474609,1.45899 v 2.33789 c 0,0.60547 0.158203,1.09179 0.474609,1.45898 0.320313,0.36719 0.742188,0.55078 1.265625,0.55078 0.371094,0 0.720703,-0.11719 1.048828,-0.35156 0.328125,-0.23437 0.548829,-0.57226 0.66211,-1.01367 v 0 H 70.9375 v 0 c -0.09766,0.50781 -0.285156,0.95117 -0.5625,1.33008 -0.277344,0.37891 -0.619141,0.67383 -1.025391,0.88476 -0.40625,0.21094 -0.855469,0.31641 -1.347656,0.31641 z"
         style="text-align:start"
         id="path344"
         sodipodi:nodetypes="scsssscsccsccsccscsscsssccsscs" />
    </g>
    <g
       aria-label="MULTISERVICES"
       transform="matrix(1.0009229,0,0,1.0009229,37.227816,322.65608)"
       id="text4020-7"
       style="font-family:Bahnschrift;-inkscape-font-specification:Bahnschrift;text-align:center;white-space:pre;shape-inside:url(#rect4022-3);display:inline;fill:#eb4646;stroke-width:0.288302">
      <path
         d="m 53.265625,-295.55859 2.501953,-5.625 h 1.119141 v 8.51953 h -1.166016 v -6.38086 l 0.05859,0.375 -2.097656,4.82226 h -0.832032 l -2.097656,-4.70507 0.05859,-0.49219 v 6.38086 h -1.166016 v -8.51953 h 1.119141 z"
         style="text-align:start"
         id="path396" />
      <path
         d="m 61.867187,-292.57617 q -1.423828,0 -2.208984,-0.82617 -0.779297,-0.83203 -0.779297,-2.34375 v -5.4375 h 1.195313 v 5.47851 q 0,0.93164 0.46875,1.44141 0.46875,0.50976 1.324218,0.50976 0.861329,0 1.330079,-0.50976 0.474609,-0.50977 0.474609,-1.44141 v -5.47851 h 1.195312 v 5.4375 q 0,1.51172 -0.785156,2.34375 -0.785156,0.82617 -2.214844,0.82617 z"
         style="text-align:start"
         id="path398" />
      <path
         d="m 66.742187,-292.66406 v -8.51953 H 67.9375 v 8.51953 z m 0.597657,0 v -1.13672 h 4.875 v 1.13672 z"
         style="text-align:start"
         id="path400" />
      <path
         d="m 74.505859,-292.66406 v -7.82227 h 1.195313 v 7.82227 z m -2.408203,-7.38281 v -1.13672 h 6.011719 v 1.13672 z"
         style="text-align:start"
         id="path402" />
      <path
         d="m 80.476562,-301.18359 v 8.51953 H 79.28125 v -8.51953 z"
         style="text-align:start"
         id="path404" />
      <path
         d="m 85.146484,-292.57617 q -0.621093,0 -1.171875,-0.11719 -0.544922,-0.11719 -1.02539,-0.35156 -0.47461,-0.23438 -0.890625,-0.58594 v 0 l 0.74414,-0.91406 v 0 q 0.486328,0.42187 1.072266,0.63281 0.585937,0.21094 1.271484,0.21094 0.925782,0 1.435547,-0.3457 0.509766,-0.34571 0.509766,-0.9668 v -0.006 q 0,-0.48633 -0.257813,-0.74414 -0.257812,-0.25781 -0.679687,-0.38086 -0.416016,-0.12891 -0.914063,-0.21094 -0.480468,-0.082 -0.972656,-0.19336 -0.486328,-0.11133 -0.896484,-0.3457 -0.410157,-0.24024 -0.66211,-0.68555 -0.246093,-0.44531 -0.246093,-1.18945 v -0.006 q 0,-1.18945 0.791015,-1.83984 0.791016,-0.65625 2.232422,-0.65625 0.685547,0 1.341797,0.22265 0.65625,0.2168 1.277344,0.66797 v 0 l -0.679688,0.94922 v 0 q -0.486328,-0.36328 -0.972656,-0.53906 -0.480469,-0.17578 -0.966797,-0.17578 -0.873047,0 -1.359375,0.35156 -0.480469,0.3457 -0.480469,0.98437 v 0.006 q 0,0.48047 0.28125,0.73242 0.28125,0.25196 0.732422,0.375 0.457031,0.11719 0.978516,0.22266 0.46875,0.0937 0.9375,0.22852 0.46875,0.1289 0.849609,0.38086 0.386719,0.24609 0.615235,0.67968 0.234375,0.4336 0.234375,1.13086 v 0.0117 q 0,1.17774 -0.820313,1.82227 -0.820312,0.64453 -2.308594,0.64453 z"
         style="text-align:start"
         id="path406" />
      <path
         d="m 89.857422,-292.66406 v -8.51953 h 1.195312 v 8.51953 z m 0.580078,0 v -1.13672 h 4.892578 v 1.13672 z m 0,-3.66211 v -1.13672 h 4.248047 v 1.13672 z m 0,-3.7207 v -1.13672 h 4.892578 v 1.13672 z"
         style="text-align:start"
         id="path408" />
      <path
         d="m 97.550781,-296.26758 v -1.13672 h 2.906249 q 0.52149,0 0.83789,-0.36328 0.31641,-0.36328 0.31641,-0.96094 v 0 q 0,-0.59765 -0.31641,-0.96093 -0.3164,-0.36328 -0.83789,-0.36328 h -2.906249 v -1.13672 h 2.859379 q 0.74414,0 1.30078,0.31054 0.55664,0.30469 0.86133,0.85547 0.31054,0.55078 0.31054,1.29492 v 0 q 0,0.73829 -0.31054,1.29493 -0.31055,0.55078 -0.86719,0.86132 -0.55078,0.30469 -1.29492,0.30469 z m -0.521484,3.60352 v -8.52539 h 1.195312 v 8.52539 z m 4.792973,0 -1.951176,-3.86719 1.189456,-0.26953 2.17968,4.13672 z"
         style="text-align:start"
         id="path410" />
      <path
         d="m 106.69141,-292.66406 -2.77735,-8.51953 h 1.30078 l 2.04493,6.67968 2.04492,-6.67968 h 1.30078 l -2.77734,8.51953 z"
         style="text-align:start"
         id="path412" />
      <path
         d="m 113.08984,-301.18359 v 8.51953 h -1.19531 v -8.51953 z"
         style="text-align:start"
         id="path414" />
      <path
         d="m 117.98828,-292.57617 q -0.89062,0 -1.55859,-0.39258 -0.66797,-0.39844 -1.03711,-1.11328 -0.36914,-0.71484 -0.36914,-1.66992 v -2.33789 q 0,-0.96094 0.36914,-1.67578 0.36914,-0.71485 1.03711,-1.10743 0.66797,-0.39843 1.55859,-0.39843 0.73828,0 1.34766,0.3164 0.61523,0.31641 1.02539,0.88477 0.41601,0.56836 0.5625,1.33008 v 0 h -1.22461 v 0 q -0.11133,-0.41016 -0.375,-0.71485 -0.25781,-0.31054 -0.60938,-0.48047 -0.35156,-0.16992 -0.72656,-0.16992 -0.78515,0 -1.26562,0.55664 -0.47461,0.55078 -0.47461,1.45899 v 2.33789 q 0,0.9082 0.47461,1.45898 0.48047,0.55078 1.26562,0.55078 0.55664,0 1.04883,-0.35156 0.49219,-0.35156 0.66211,-1.01367 v 0 h 1.22461 v 0 q -0.14649,0.76172 -0.5625,1.33008 -0.41602,0.56836 -1.02539,0.88476 -0.60938,0.31641 -1.34766,0.31641 z"
         style="text-align:start"
         id="path416" />
      <path
         d="m 122.50586,-292.66406 v -8.51953 h 1.19531 v 8.51953 z m 0.58008,0 v -1.13672 h 4.89258 v 1.13672 z m 0,-3.66211 v -1.13672 h 4.24804 v 1.13672 z m 0,-3.7207 v -1.13672 h 4.89258 v 1.13672 z"
         style="text-align:start"
         id="path418" />
      <path
         d="m 132.23828,-292.57617 q -0.62109,0 -1.17187,-0.11719 -0.54493,-0.11719 -1.02539,-0.35156 -0.47461,-0.23438 -0.89063,-0.58594 v 0 l 0.74414,-0.91406 v 0 q 0.48633,0.42187 1.07227,0.63281 0.58593,0.21094 1.27148,0.21094 0.92578,0 1.43555,-0.3457 0.50976,-0.34571 0.50976,-0.9668 v -0.006 q 0,-0.48633 -0.25781,-0.74414 -0.25781,-0.25781 -0.67969,-0.38086 -0.41601,-0.12891 -0.91406,-0.21094 -0.48047,-0.082 -0.97266,-0.19336 -0.48632,-0.11133 -0.89648,-0.3457 -0.41016,-0.24024 -0.66211,-0.68555 -0.24609,-0.44531 -0.24609,-1.18945 v -0.006 q 0,-1.18945 0.79101,-1.83984 0.79102,-0.65625 2.23242,-0.65625 0.68555,0 1.3418,0.22265 0.65625,0.2168 1.27735,0.66797 v 0 l -0.67969,0.94922 v 0 q -0.48633,-0.36328 -0.97266,-0.53906 -0.48047,-0.17578 -0.9668,-0.17578 -0.87304,0 -1.35937,0.35156 -0.48047,0.3457 -0.48047,0.98437 v 0.006 q 0,0.48047 0.28125,0.73242 0.28125,0.25196 0.73242,0.375 0.45703,0.11719 0.97852,0.22266 0.46875,0.0937 0.9375,0.22852 0.46875,0.1289 0.84961,0.38086 0.38672,0.24609 0.61523,0.67968 0.23438,0.4336 0.23438,1.13086 v 0.0117 q 0,1.17774 -0.82032,1.82227 -0.82031,0.64453 -2.30859,0.64453 z"
         style="text-align:start"
         id="path420" />
    </g>
    <rect
       style="opacity:1;fill:#eb4646;fill-opacity:1;stroke:none;stroke-width:1.53176;stroke-dasharray:none;stroke-opacity:1"
       id="rect4788"
       width="95.16272"
       height="1.6492865"
       x="86.77388"
       y="16.233114" />
    <g
       aria-label="IMMIGRATION"
       transform="matrix(1.2033174,0,0,1.2033174,27.209211,364.8975)"
       id="text4020-7-5-9"
       style="font-family:Bahnschrift;-inkscape-font-specification:Bahnschrift;text-align:center;white-space:pre;shape-inside:url(#rect4022-3-8-1);display:inline;fill:#ffffff;stroke:#ffffff;stroke-width:0.288302">
      <path
         d="m 50.839844,-301.18359 v 8.51953 h -1.195313 v -8.51953 z"
         style="text-align:start"
         id="path423" />
      <path
         d="m 56.570312,-295.55859 2.501954,-5.625 h 1.11914 v 8.51953 h -1.166015 v -6.38086 l 0.05859,0.375 -2.097656,4.82226 h -0.832031 l -2.097656,-4.70507 0.05859,-0.49219 v 6.38086 h -1.166015 v -8.51953 h 1.11914 z"
         style="text-align:start"
         id="path425" />
      <path
         d="m 65.921875,-295.55859 2.501953,-5.625 h 1.119141 v 8.51953 h -1.166016 v -6.38086 l 0.05859,0.375 -2.097656,4.82226 h -0.832032 l -2.097656,-4.70507 0.05859,-0.49219 v 6.38086 h -1.166016 v -8.51953 h 1.119141 z"
         style="text-align:start"
         id="path427" />
      <path
         d="m 72.847656,-301.18359 v 8.51953 h -1.195312 v -8.51953 z"
         style="text-align:start"
         id="path429" />
      <path
         d="m 77.828125,-297.25195 h 2.953125 v 1.48828 q 0,0.96094 -0.375,1.68164 -0.369141,0.71484 -1.037109,1.11328 -0.667969,0.39258 -1.570313,0.39258 -0.908203,0 -1.587891,-0.36914 -0.679687,-0.375 -1.054687,-1.04883 -0.375,-0.67969 -0.375,-1.58203 v -2.51367 q 0,-0.96094 0.369141,-1.67578 0.375,-0.71485 1.042968,-1.10743 0.667969,-0.39843 1.570313,-0.39843 0.74414,0 1.353515,0.3164 0.615235,0.31641 1.03125,0.88477 0.416016,0.56836 0.5625,1.33008 v 0 h -1.294921 v 0 q -0.164063,-0.66211 -0.638672,-1.01368 -0.47461,-0.35156 -1.013672,-0.35156 -0.796875,0 -1.277344,0.55664 -0.480469,0.55078 -0.480469,1.45899 v 2.51367 q 0,0.83203 0.492188,1.33594 0.492187,0.49804 1.300781,0.49804 0.796875,0 1.277344,-0.52734 0.480469,-0.52734 0.480469,-1.4707 v -0.36914 h -1.728516 z"
         style="text-align:start"
         id="path431" />
      <path
         d="m 83.119141,-296.26758 v -1.13672 h 2.90625 q 0.521484,0 0.83789,-0.36328 0.316406,-0.36328 0.316406,-0.96094 v 0 q 0,-0.59765 -0.316406,-0.96093 -0.316406,-0.36328 -0.83789,-0.36328 h -2.90625 v -1.13672 h 2.859375 q 0.74414,0 1.300781,0.31054 0.55664,0.30469 0.861328,0.85547 0.310547,0.55078 0.310547,1.29492 v 0 q 0,0.73829 -0.310547,1.29493 -0.310547,0.55078 -0.867188,0.86132 -0.550781,0.30469 -1.294921,0.30469 z m -0.521485,3.60352 v -8.52539 h 1.195313 v 8.52539 z m 4.792969,0 -1.951172,-3.86719 1.189453,-0.26953 2.179688,4.13672 z"
         style="text-align:start"
         id="path433" />
      <path
         d="m 89.306641,-292.66406 3.140625,-8.51953 h 1.019531 l 3.140625,8.51953 h -1.289063 l -2.361328,-6.87305 -2.361328,6.87305 z m 1.447265,-1.86914 v -1.13672 h 4.482422 v 1.13672 z"
         style="text-align:start"
         id="path435" />
      <path
         d="m 98.898437,-292.66406 v -7.82227 h 1.195313 v 7.82227 z m -2.408203,-7.38281 v -1.13672 h 6.011716 v 1.13672 z"
         style="text-align:start"
         id="path437" />
      <path
         d="m 104.86914,-301.18359 v 8.51953 h -1.19531 v -8.51953 z"
         style="text-align:start"
         id="path439" />
      <path
         d="m 109.79688,-292.57617 q -0.90235,0 -1.57618,-0.38672 -0.67382,-0.39258 -1.04882,-1.10156 -0.36915,-0.70899 -0.36915,-1.65235 v -2.41406 q 0,-0.94922 0.36915,-1.65234 0.375,-0.70899 1.04882,-1.09571 0.67383,-0.39257 1.57618,-0.39257 0.90234,0 1.57617,0.39257 0.67383,0.38672 1.04297,1.09571 0.375,0.70312 0.375,1.65234 v 2.41406 q 0,0.94336 -0.375,1.65235 -0.36914,0.70898 -1.04297,1.10156 -0.67383,0.38672 -1.57617,0.38672 z m 0,-1.17774 q 0.80273,0 1.2832,-0.52734 0.48633,-0.52734 0.48633,-1.39453 v -2.49609 q 0,-0.87305 -0.48633,-1.39454 -0.48047,-0.52734 -1.2832,-0.52734 -0.79688,0 -1.28321,0.52734 -0.48633,0.52149 -0.48633,1.39454 v 2.49609 q 0,0.86719 0.48633,1.39453 0.48633,0.52734 1.28321,0.52734 z"
         style="text-align:start"
         id="path441" />
      <path
         d="m 114.60742,-292.66992 v -8.51367 h 1.08399 l 4.16601,6.58593 -0.14062,0.15235 v -6.73828 h 1.18359 v 8.51367 h -1.0957 l -4.1543,-6.48633 0.14063,-0.15234 v 6.63867 z"
         style="text-align:start"
         id="path443" />
    </g>
    <circle
       style="opacity:1;fill:#eb4646;fill-opacity:1;stroke:none;stroke-width:1.18302;stroke-dasharray:none;stroke-opacity:1"
       id="path6329"
       cx="198.9716"
       cy="17.057756"
       r="15.007688" />
    <path
       id="path5544-3"
       style="fill:#ffffff;fill-opacity:1;stroke-width:0.00895483"
       d="m 193.95225,3.5403374 c -0.0601,0 -0.16719,0.103869 -0.20402,0.197554 -0.0361,0.09211 -0.11203,0.106164 -0.25205,0.216316 l -0.0152,-0.01788 c -0.0251,-0.02972 -0.0868,-0.07932 -0.0989,-0.07932 -0.0136,0 -0.019,0.02598 -0.066,0.09569 -0.0342,0.05096 -0.0388,0.05469 -0.0739,0.06223 -0.0174,0.0024 -0.0345,0.0086 -0.0511,0.01532 -0.0119,0.0062 -0.0152,0.0024 -0.0272,-0.0231 -0.007,-0.01668 -0.0195,-0.03352 -0.0269,-0.03742 -0.017,-0.0086 -0.13263,-0.0086 -0.13825,-2.79e-4 -0.004,0.0031 4.3e-4,0.02498 0.004,0.04715 0.0204,0.07967 -0.0152,0.08565 -0.067,0.176044 -0.0393,0.06907 -0.0824,0.111996 -0.17455,0.17353 -0.17865,0.119449 -0.2563,0.176581 -0.29374,0.21617 -0.0154,0.01532 -0.0297,0.03243 -0.0418,0.05072 -0.004,0.0086 -0.004,0.0086 -0.0193,2.88e-4 -0.0136,-0.0086 -0.0194,-0.0086 -0.0365,7.78e-4 -0.0307,0.01652 -0.0434,0.04178 -0.0493,0.09875 -0.008,0.07789 -0.0464,0.132369 -0.067,0.19889 -0.0119,0.03797 -0.0783,0.189377 -0.0942,0.226189 7.9e-4,0.184165 -0.004,0.26857 0.11038,0.420832 0.0458,0.06098 0.0551,0.0881 0.0302,0.0881 -0.0181,0 -0.0516,0.02629 -0.0573,0.04536 -0.004,0.0096 8.1e-4,0.02357 0.0136,0.03943 0.0314,0.042 0.0297,0.07366 0.0364,0.201639 -0.0961,4.27e-4 -0.69365,0.0031 -0.78904,0.0039 -8.2e-4,0.01668 -0.007,0.04036 0.007,0.04605 0.0136,0.0054 0.0119,0.04357 0.0119,0.329106 l -0.0334,-0.03067 c -0.0321,-0.02972 -0.0768,-0.04652 -0.0943,-0.0357 -0.0175,0.01076 -0.007,0.04418 0.0222,0.07654 0.0438,0.04754 0.0154,0.03206 0.055,0.09514 0.0224,0.03579 0.0263,0.05009 0.0375,0.143351 0.0248,0.204569 -0.0195,0.09381 -0.0152,0.188957 0.004,0.09766 -0.12243,0.239436 -0.12243,0.262586 0,0.0039 -0.004,0.007 -0.0107,0.007 -0.0136,0 -0.0438,0.03074 -0.0438,0.04348 -0.004,0.01112 -0.007,0.02132 -0.0153,0.02988 -0.0181,0.02295 -0.019,0.04054 -0.004,0.07032 0.0136,0.02536 0.0154,0.02225 0.0918,0.02225 0.007,0.02505 0.0394,0.137001 0.0493,0.148902 0.0152,0.01873 0.30737,-4.67e-4 0.30737,0.02015 0,0.01076 0.0119,0.01379 0.0981,0.02374 0.18518,0.02163 0.36013,0.110695 0.38347,0.195261 0.0136,0.05173 -0.008,0.06758 -0.0326,0.02276 -0.0136,-0.02241 -0.0315,-0.04284 -0.0511,-0.06088 -0.0919,-0.08589 -0.20959,-0.09283 -0.29516,-0.0175 -0.0678,0.0596 -0.0491,0.100143 -0.0361,0.249393 0.008,0.08938 0.0263,0.131518 0.11215,0.257842 0.19315,0.283729 0.4007,0.40453 0.38034,0.40453 -0.0245,0 -0.20183,-0.05249 -0.28721,-0.01832 -0.0324,0.01294 -0.0644,0.05249 -0.0764,0.09432 -0.0107,0.03417 -0.0107,0.143742 4.7e-4,0.170414 0.0119,0.03168 0.0877,0.10491 0.14047,0.135928 l 0.0467,0.02729 c -0.0175,0.01634 -0.0378,0.03082 -0.066,0.09041 -0.0282,0.05905 -0.026,0.07653 -0.0326,0.189839 0.0466,0.06056 0.077,0.09565 0.077,0.143266 -9e-5,0.04196 -0.0183,0.0975 -0.0451,0.138159 -0.095,0.143334 0.008,0.258433 0.0881,0.487658 0.0305,0.08777 0.0988,0.2456786 0.13212,0.3053826 0.0263,0.04415 0.0558,0.0864 0.0883,0.126358 0.008,0.279965 0.0119,0.295957 -0.004,0.326071 -0.007,0.01396 -0.0175,0.02557 -0.0307,0.03384 -0.0154,0.0069 -0.017,0.01276 -0.017,0.06073 0,0.02928 0.004,0.05699 0.008,0.06154 0.0136,0.01328 7.7e-4,0.03656 -0.0272,0.05184 l -0.0263,0.01412 c 0,0.174164 -0.004,0.168992 0.019,0.17442 0.0211,0.0054 0.023,0.01171 0.0107,0.03272 -0.004,0.01018 -0.007,0.02477 -8.1e-4,0.05078 0.007,0.03629 0.007,0.03651 0.0373,0.03684 0.0361,4.27e-4 0.0672,0.01923 0.078,0.04707 0.0154,0.03969 0.004,0.174068 0.0256,0.220179 0.0253,0.05611 7.8e-4,0.09282 0.0686,0.191396 0.0152,0.02129 0.0152,0.03094 0.0107,0.493891 -0.0107,0.859858 -0.0597,1.152364 -0.008,1.57199 0.0329,0.27025 0.0883,0.638335 0.11275,0.751286 0.0389,0.180676 0.0365,0.268802 0.12819,0.516207 0.0582,0.15721 0.0841,0.216515 0.1265,0.85444 -0.29639,0.404762 -0.2419,0.373606 -0.50137,0.878991 -0.192,0.373972 -0.24897,0.61075 -0.31405,0.754253 -0.0742,0.164071 -0.087,0.321453 -0.12377,0.457035 -0.0296,0.10918 -0.0239,0.04668 -0.0222,0.286468 0.004,0.436485 0.0376,0.371614 0.0508,0.537344 0.008,0.104768 0.0347,0.112552 0.072,0.282985 0.0289,0.13627 0.0678,0.270197 0.11629,0.400821 0.0407,0.113239 0.0572,0.147914 0.0993,0.211569 0.0783,0.117935 0.14828,0.158741 0.27622,0.161006 0.0322,4.63e-4 0.0584,8.14e-4 0.0584,0.0013 4.8e-4,0.0027 -0.10553,0.238582 -0.10553,0.34105 -4.7e-4,0.02394 -0.004,0.0477 -0.0119,0.07052 -0.0153,0.04498 -0.022,0.124504 -0.0119,0.161517 0.0178,0.06575 0.0914,0.09991 0.19457,0.09025 0.054,-0.0051 0.0543,-0.005 0.0654,0.01617 0.017,0.03147 0.0639,0.06445 0.0974,0.123108 0.037,0.06464 0.24542,0.259699 0.28277,0.324963 0.0256,0.04465 0.0815,0.226763 0.0892,0.289582 0.007,0.05602 -0.0295,0.152356 -0.11369,0.301596 -0.0621,0.109962 -0.0845,0.191078 -0.0756,0.273645 0.004,0.05766 0.0313,0.09132 0.0802,0.107466 0.0321,0.01076 0.0744,0.04063 0.0744,0.05288 0,0.0093 -0.0427,0.06862 -0.049,0.09781 -0.0136,0.06124 0.0426,0.11584 0.0793,0.156697 -0.0557,0.09655 -0.0565,0.104863 -0.10457,0.129187 -0.0877,0.04439 -0.10578,0.154434 -0.16106,0.324288 -0.0222,0.06807 -0.023,0.07362 -0.0153,0.125696 0.0119,0.08042 0.0681,0.163697 0.16037,0.240496 0.12616,0.104981 0.12751,0.0828 0.1277,0.127178 2.9e-4,0.07902 0.0386,0.164973 0.0879,0.196961 0.0154,0.0098 0.0369,0.041 0.0633,0.09047 0.0637,0.119651 0.10304,0.166709 0.20141,0.24086 0.0427,0.0323 0.0427,0.03222 0.0511,0.132371 0.0136,0.157652 0.0927,0.44244 0.16259,0.581909 0.0467,0.09316 0.12087,0.221991 0.1958,0.313688 -0.0356,0.361016 -0.028,0.399392 -0.0376,0.446796 -0.007,0.03493 -0.13943,0.225184 -0.24605,0.354178 -0.10777,0.130411 -0.31281,0.436432 -0.39668,0.591852 -0.10636,0.19726 -0.21504,0.457475 -0.26249,0.628778 -0.0211,0.07618 -0.0341,0.147403 -0.0473,0.211943 h 12.23836 c 0.0849,-0.104058 0.15765,-0.207194 0.27628,-0.386731 0.10364,-0.156903 0.1379,-0.202919 0.16634,-0.223882 0.0384,-0.02826 0.13756,-0.144748 0.19413,-0.228035 0.0407,-0.05986 0.0611,-0.130174 0.0829,-0.196069 -0.0209,-0.05496 -0.0379,-0.111571 -0.12088,-0.246872 -0.11748,-0.192154 -0.11049,-0.178193 -0.2043,-0.27527 0.0194,-0.03016 0.49663,-0.770315 0.49663,-0.792523 0,-0.02077 -0.0683,-0.0759 -0.13587,-0.134293 0.21797,-0.219055 0.2808,-0.278879 0.27787,-0.299453 -0.004,-0.02031 -0.5373,-0.401743 -2.12126,-1.539279 -0.35404,-0.172363 -0.38736,-0.192737 -0.40328,-0.15447 -0.0107,0.02583 -0.066,0.340482 -0.0702,0.353878 -7.8e-4,0.0027 -0.0407,-0.01362 -0.0882,-0.03644 -0.067,-0.03207 -0.0906,-0.04011 -0.10352,-0.03532 -0.031,0.01159 -0.67276,1.103315 -0.69277,1.103315 -8e-4,0 -0.0196,-0.01841 -0.0407,-0.04086 -0.0659,-0.06956 -0.0969,-0.06466 -0.13041,-0.06466 0.004,-0.0793 0.0136,-0.198213 0.0136,-0.317991 2.8e-4,-0.09968 -3.1e-4,-0.103751 -0.0185,-0.123551 -0.0361,-0.03912 -0.0915,-0.05681 -0.20267,-0.06464 -0.0555,-0.0038 -0.10824,-0.01088 -0.11701,-0.01566 -0.0305,-0.01617 -0.17077,-0.153363 -0.22231,-0.217134 -0.0711,-0.08809 -0.127,-0.185731 -0.22091,-0.320878 -0.0678,-0.09764 -0.14439,-0.250627 -0.19371,-0.346394 -0.0601,-0.519018 -0.17216,-0.964281 -0.29908,-1.28952 -0.11251,-0.288282 -0.0736,-0.260211 -0.16838,-0.401637 -0.12376,-0.184631 -0.13926,-0.113285 -0.19345,-0.250501 -0.0419,-0.1062 -0.1214,-0.246495 -0.16362,-0.288771 -0.0298,-0.03001 -0.0362,-0.0409 -0.0365,-0.06406 -4.4e-4,-0.07557 -0.0375,-0.135178 -0.1015,-0.164632 -0.0211,-0.0096 -0.0806,-0.02458 -0.13229,-0.03322 -0.13109,-0.02184 -0.16513,-0.03246 -0.26059,-0.08082 -0.13859,-0.07022 -0.05,-0.03773 -0.17807,-0.17153 0.0289,-0.0896 0.0624,-0.167254 0.0175,-0.199262 -0.0518,-0.03679 -0.0824,-0.0062 -0.18673,0.07231 l -0.0879,-0.234337 c -0.13093,-0.349667 -0.35202,-0.987305 -0.35202,-1.015512 0,-0.0038 0.008,-0.01112 0.019,-0.01583 0.0154,-0.0089 0.0265,-0.02106 0.0353,-0.0357 0.0243,-0.04102 0.0601,-0.06692 0.0776,-0.109891 0.007,-0.01807 0.0203,-0.03374 0.0361,-0.04521 0.037,-0.0219 0.0592,-0.06199 0.0582,-0.104863 0,-0.07596 -0.24126,-1.073237 -0.24126,-1.167528 0,-0.01346 0.17347,-0.0829 0.17347,-0.159372 0,-0.05882 -0.1008,-0.265734 -0.13298,-0.381614 -0.0209,-0.07532 -0.0524,-0.153718 -0.071,-0.202003 0.0597,-0.150501 0.0981,-0.241764 0.11782,-0.354324 0.0119,-0.06677 0.0153,-0.07789 0.0292,-0.08054 0.0535,-0.01041 2.28299,-0.129407 2.30593,-0.15617 0.017,-0.01938 0.0174,-0.06894 7.6e-4,-0.08491 -0.017,-0.01702 0.13364,0.0019 -2.32922,-0.189398 -0.0243,-0.17168 -0.0371,-0.176228 -0.0313,-0.181984 0.004,-0.0055 2.03818,-0.656864 2.10482,-0.678241 -4.2e-4,-0.03987 0.004,-0.09321 -0.0365,-0.09321 -0.0211,0 -2.20932,0.377552 -2.25965,0.38621 -0.0609,-0.05772 -0.13859,-0.134974 -0.24532,-0.199558 -0.0223,-0.01345 -0.0396,-0.02682 -0.0389,-0.02951 7.8e-4,-0.0027 0.2901,-0.254969 0.64257,-0.560562 0.69538,-0.602809 0.65979,-0.569309 0.65979,-0.593035 0,-0.01919 -0.0441,-0.06674 -0.0618,-0.06674 -0.0119,0 -1.69176,0.974918 -1.72891,1.003128 -0.004,0.0032 -0.0601,-0.009 -0.12428,-0.02725 -0.19499,-0.05503 -0.40972,-0.06371 -0.43717,-0.07794 -0.0224,-0.01159 -0.19687,-1.532551 -0.2193,-1.546698 -0.0174,-0.01112 -0.072,-0.0084 -0.0822,0.0038 -0.0119,0.01447 -0.22332,1.49231 -0.23108,1.546035 -0.18936,0.01741 -0.36442,0.038 -0.55662,0.09805 -0.0465,0.01447 -0.0888,0.02632 -0.0938,0.02632 -0.0136,0 -1.68431,-0.965158 -1.70857,-0.965158 -0.0194,0 -0.0399,0.02598 -0.0462,0.0585 -0.004,0.02648 -0.0408,-0.0077 0.63784,0.608831 0.2783,0.252824 0.54772,0.497181 0.59585,0.543351 -0.15782,0.105726 -0.17238,0.11228 -0.31309,0.24183 -1.26962,0.04442 -1.3548,0.04678 -1.55709,0.05777 0,-0.224882 0.008,-0.345696 -0.0873,-1.01514 -0.0391,-0.274049 -0.0468,-0.313924 -0.12088,-0.622033 -0.12427,-0.517748 -0.25393,-1.011918 -0.27402,-1.139797 -0.046,-0.29351 -0.0783,-0.534297 -0.0979,-0.732528 -0.0214,-0.215254 -0.022,-0.230466 -0.0154,-0.407195 0.0337,-0.8339016 0.2275,-1.1480976 -0.11179,-1.8359176 -0.0633,-0.128233 -0.12923,-0.217791 -0.18384,-0.249389 -0.0408,-0.02365 -0.13143,-0.115653 -0.16514,-0.148834 1.5e-4,-0.06998 0.004,-0.366055 0.023,-0.443465 0.007,-0.03517 0.0323,-0.06437 0.0655,-0.07825 0.0394,-0.01668 0.0107,-0.02276 0.0403,-0.08364 0.0136,-0.02695 0.0154,-0.04136 0.0119,-0.07964 -0.008,-0.09069 -0.0119,-0.103788 -0.0338,-0.111903 -0.0177,-0.0069 -0.0184,-0.0084 -0.007,-0.01498 0.0198,-0.01112 0.0187,-0.0745 -7.5e-4,-0.07971 -0.0419,-0.01088 -0.0136,-0.08638 0.0504,-0.132676 0.17845,-0.130037 0.40209,-0.107772 0.41864,-0.137341 0.0119,-0.02217 0.28981,-0.0015 0.30544,-0.02077 0.0107,-0.0119 0.0427,-0.127195 0.0493,-0.148902 0.0757,0 0.0786,0.0031 0.0918,-0.02225 0.0154,-0.02971 0.0136,-0.0473 -0.004,-0.07032 -0.007,-0.0084 -0.0119,-0.01814 -0.0154,-0.02878 0,-0.01295 -0.0303,-0.04457 -0.0427,-0.04457 -0.004,0 -0.0107,-0.0031 -0.0107,-0.0062 0,-0.02249 -0.12667,-0.165755 -0.12258,-0.262221 0.004,-0.09251 -0.0384,0.01617 -0.0119,-0.212542 0.007,-0.05928 0.0136,-0.08161 0.0338,-0.119397 0.0136,-0.02559 0.0256,-0.05117 0.0256,-0.05695 0,-0.01482 0.0506,-0.05618 0.0613,-0.07561 0.0119,-0.02038 -0.004,-0.04334 -0.0302,-0.04334 -0.023,0 -0.0718,0.0291 -0.093,0.05532 -0.0119,0.0155 -0.0136,0.009 -0.0136,-0.146908 -1.3e-4,-0.141308 7.6e-4,-0.163815 0.0119,-0.167748 0.0152,-0.0054 0.0107,-0.02949 0.007,-0.04605 -0.0953,-4.28e-4 -0.68773,-0.0031 -0.7823,-0.0039 0.004,-0.159337 0.004,-0.168735 0.0261,-0.200004 0.0119,-0.01617 0.0179,-0.03322 0.0152,-0.04193 -0.004,-0.01686 -0.0368,-0.04451 -0.0519,-0.04451 -0.004,0 -0.0107,-0.0084 -0.0107,-0.02085 0,-0.01686 0.0107,-0.02901 0.0556,-0.06432 0.13944,-0.109252 0.25974,-0.256956 0.2485,-0.433007 -0.004,-0.07288 -7.9e-4,-0.08456 0.0466,-0.159575 0.0334,-0.05156 0.0465,-0.113676 0.0369,-0.174349 -0.0107,-0.07932 0.0107,-0.06512 0.0119,-0.199778 7.8e-4,-0.147795 0.0119,-0.185938 0.0946,-0.331782 0.0678,-0.120267 0.0875,-0.207869 0.0709,-0.319689 -0.0136,-0.091 -0.0119,-0.111322 0.017,-0.174791 0.0668,-0.151182 -0.017,-0.182312 7.8e-4,-0.21358 0.0107,-0.0179 8.1e-4,-0.03462 -0.017,-0.03462 z m 0.48269,11.3688506 c 0.13245,0.01516 1.29949,0.115665 1.30184,0.117604 8.1e-4,0.0013 -0.0252,0.105147 -0.0313,0.134754 -7.9e-4,0.01171 -0.0107,0.02137 -0.0211,0.02448 -0.0214,0.005 -0.99983,0.139639 -1.00438,0.139639 -0.004,0 -0.0512,-0.05406 -0.24532,-0.278234 h 8e-5 z m 0.75552,0.712285 c 0.11156,-8.14e-4 0.25348,4.65e-4 0.50523,0.0019 l 0.0473,0.131927 c 0.0655,0.183753 0.1413,0.314972 0.15408,0.348395 0.0136,0.03611 -0.0338,0.190311 -0.0594,0.288766 -0.0136,0.03597 -0.029,0.07114 -0.0465,0.105301 -0.0357,0.07288 -0.0405,0.0882 -0.0405,0.129253 0,0.03298 0.004,0.0507 0.0119,0.06059 0.0119,0.0126 0.0119,0.0155 7.8e-4,0.02909 -0.0269,0.03555 -0.12685,0.260446 -0.37576,0.524145 l -0.1585,-0.155949 c 0.0392,-0.170199 0.0566,-0.328793 0.0566,-0.381686 -1.4e-4,-0.135231 -0.0449,-0.337813 -0.0868,-0.39363 -0.0282,-0.0375 -0.0867,-0.09035 -0.0867,-0.110493 0,-0.0081 -0.017,-0.0427 -0.0375,-0.07697 -0.0235,-0.03614 -0.04,-0.0763 -0.049,-0.118425 -0.0296,-0.142534 -0.0806,-0.22633 -0.15935,-0.372715 0.13024,-0.0061 0.21138,-0.009 0.32294,-0.0096 z" />
    <g
       aria-label="d"
       transform="matrix(-0.35426735,0,0,0.25045684,348.11517,140.4476)"
       id="text5919-1"
       style="font-family:Bahnschrift;-inkscape-font-specification:Bahnschrift;white-space:pre;shape-inside:url(#rect5921);fill:#ffffff;stroke-width:3.77953">
      <path
         d="m 414.4723,-440.3639 q 0.23536,-0.27252 0.19809,-1.18915 -0.0495,-1.25109 -0.0247,-1.44928 0.0127,-0.12388 0.18583,-0.12388 0.22297,-0.0127 0.24774,-0.0619 0.0247,-0.60696 0.61935,-1.53598 -0.0619,-0.73084 0.24775,-0.86709 v -0.68127 q 0,-0.14862 0.22297,-0.23536 0.23533,-0.0867 0.26011,-0.18582 0.0619,-0.26014 0.0247,-0.80516 -0.0619,-0.71845 -0.0619,-0.86709 0.0127,-0.95379 0.84232,-0.79277 0.0992,0.68129 0.0495,2.7499 -0.0495,1.82089 0.19808,2.60127 0.35922,2.10579 0.18583,1.96952 0.0867,-0.18582 0.0619,-0.76799 -0.0247,-0.58218 0.0619,-0.76799 0.18582,-0.0247 0.47071,0.28491 0.27252,0.28489 0.5698,0.14862 0,0 0.12388,0.48308 -0.0127,-0.63172 0.49547,-1.01573 0.12388,-0.0992 0.45832,-0.28489 0.30967,-0.17335 0.45831,-0.2973 0.0127,-0.18582 0,-1.17676 -0.0127,-0.71843 0.0619,-1.09004 0.0867,-0.18582 0.45832,-0.19809 0.32205,-0.0127 0.59457,0.0742 0.14862,0.43354 0.13615,1.39972 -0.0372,1.32542 -0.0247,1.54839 0.53266,0.0372 1.02813,0.5698 0.0495,0.0619 0.39638,0.47069 0.24774,0.28491 0.42116,0.43355 0.22297,-0.12389 0.8547,-0.84232 0.48308,-0.55741 1.05288,-0.63172 v -4.18679 q 0.39638,-0.39638 0.87948,-0.24775 0.37161,0.11141 0.89185,0.61935 1.42451,1.35018 1.73419,1.41212 0.0867,-0.73085 0.0619,-2.50218 -0.0247,-1.73417 0.0619,-2.35352 0.33444,0 1.96952,0.49549 0.0372,0.0742 0.0619,0.91663 0.16109,0.0372 0.82993,0.19808 0.54502,0.13636 0.87946,0.18583 1.00335,0.12388 1.42451,-0.384 -0.0247,0.0744 0.0619,-1.47403 0.3716,-0.33446 1.33778,-0.9662 0.89185,-0.59458 1.31301,-1.00335 0.0495,-0.35922 0.0495,-1.68461 -0.0127,-1.36257 0.0619,-1.94475 0.24773,-0.0744 0.76799,-0.0619 0.70605,0.0127 0.84232,0 v -1.41212 q -20.97113,-0.14861 -41.94224,0 v 1.35018 q 0.19809,0.0867 0.80515,0.0619 0.59458,-0.0127 0.79277,0.0619 v 3.14628 q 0,0.23536 -0.0247,0.82993 -0.0127,0.53264 -0.0127,0.81754 0.0127,0.91663 0.28491,1.36257 0.23536,0.0247 0.70605,0.13635 0.52026,0.12389 0.73084,0.14862 0.8423,0.13636 1.20154,-0.28489 0.0127,-0.54504 0,-3.14628 -0.0127,-1.93238 0.0619,-3.07198 h 0.43355 q 0.17335,1.17676 0.13614,3.30731 -0.0372,2.8614 -0.0127,3.45597 0.38399,0.39638 0.45832,0.44594 0.30969,0.22297 0.64413,0.11141 0.11141,0.34683 0.0495,1.54836 -0.0372,1.06529 0.19809,1.39973 0.28489,-0.0619 0.2725,-0.61935 -0.0372,-0.86707 -0.0247,-0.91663 0.11141,-0.0495 0.4831,-0.0619 0.33444,-0.0127 0.44593,-0.12388 0.24773,-0.73082 0.0619,-2.57649 -0.0991,0.0744 1.7218,-0.12388 0.18583,0.54502 0.0992,2.44022 -0.0742,1.69702 0.32208,2.22965 v 1.90759 q 0.0742,0.0372 0.28489,0.0619 0.19808,0.0127 0.27252,0.0619 v 2.15533 q 0.12388,0.16109 0.55741,0.12388 0.0619,0.0992 0.0495,0.43355 0,0.32205 0.0744,0.42115 h 1.7218 q 0.0619,-0.52024 0.0992,-0.63173 0.0992,-0.30967 0.38399,-0.34683 0.0127,-0.17335 0,-1.0529 -0.0127,-0.6565 0.0619,-0.97857 0.0127,-0.16109 0.26014,-0.22297 0.2725,-0.0744 0.29727,-0.21056 v -1.78372 q 0.32206,-0.21056 0.32206,-0.99095 0,-0.12389 -0.0247,-0.68127 -0.0127,-0.42116 0.0127,-0.65652 0.22297,-0.0867 0.73085,-0.0744 0.68127,0.0127 0.80515,0.0127 -0.0372,-0.0495 0.12389,1.7218 -0.0247,0.14862 0.17335,0.18583 0.22297,0.0495 0.26013,0.12388 0.0127,0.12388 -0.0127,0.38399 -0.0247,0.23536 0.0127,0.34683 0.0127,0.0867 0.14862,0.19809 0.13635,0.12388 0.14861,0.17335 0.0372,0.0742 0.0127,0.24772 -0.0247,0.18583 -0.0127,0.24775 0.0127,0.0247 0.11141,0.12388 0.11141,0.0867 0.13615,0.17335 0.0247,0.0619 0,0.22295 -0.0247,0.16109 0,0.21056 0.0372,0.0744 0.11141,0.14861 0.11141,0.11141 0.13614,0.13636 0.16109,0.18582 0.0619,0.52024 0.0372,0.0619 0.22295,0.11141 0.18582,0.0372 0.21056,0.13615 0,0.19808 -0.0127,1.35017 -0.0127,0.84232 0.0744,1.28826 z"
         style="font-family:'City Icons';-inkscape-font-specification:'City Icons';fill:#ffffff;stroke-width:7.99008"
         id="path6025-3" />
    </g>
  </g>
</svg>
